<svg width="100" height="100" viewBox="0 0 100 100" fill="none" xmlns="http://www.w3.org/2000/svg">
<path d="M16.6665 79.1669V70.8336H24.9998V41.6669C24.9998 35.903 26.7359 30.7821 30.2082 26.3044C33.6804 21.8266 38.1943 18.8918 43.7498 17.5002V14.5835C43.7498 12.8474 44.3582 11.3724 45.5748 10.1585C46.7915 8.94462 48.2665 8.33628 49.9998 8.33351C51.7332 8.33073 53.2096 8.93906 54.429 10.1585C55.6484 11.378 56.2554 12.853 56.2498 14.5835V17.5002C61.8054 18.8891 66.3193 21.8238 69.7915 26.3044C73.2637 30.7849 74.9998 35.9058 74.9998 41.6669V70.8336H83.3332V79.1669H16.6665ZM49.9998 91.6669C47.7082 91.6669 45.7471 90.8516 44.1165 89.2211C42.4859 87.5905 41.6693 85.628 41.6665 83.3336H58.3332C58.3332 85.6252 57.5179 87.5877 55.8873 89.2211C54.2568 90.8544 52.2943 91.6697 49.9998 91.6669Z" fill="#02542D"/>
</svg>
