<svg width="100" height="100" viewBox="0 0 100 100" fill="none" xmlns="http://www.w3.org/2000/svg">
<path d="M49.9999 8.3335C27.0249 8.3335 8.33325 27.0252 8.33325 50.0001V67.2626C8.33325 71.5293 12.0708 75.0001 16.6666 75.0001H20.8333C21.9383 75.0001 22.9981 74.5611 23.7795 73.7797C24.5609 72.9983 24.9999 71.9385 24.9999 70.8335V49.4043C24.9999 48.2992 24.5609 47.2394 23.7795 46.458C22.9981 45.6766 21.9383 45.2376 20.8333 45.2376H17.0499C19.3666 29.1127 33.2416 16.6668 49.9999 16.6668C66.7583 16.6668 80.6333 29.1127 82.9499 45.2376H79.1666C78.0615 45.2376 77.0017 45.6766 76.2203 46.458C75.4389 47.2394 74.9999 48.2992 74.9999 49.4043V75.0001C74.9999 79.596 71.2624 83.3335 66.6666 83.3335H58.3333V79.1668H41.6666V91.6668H66.6666C75.8583 91.6668 83.3333 84.1918 83.3333 75.0001C87.9291 75.0001 91.6666 71.5293 91.6666 67.2626V50.0001C91.6666 27.0252 72.9749 8.3335 49.9999 8.3335Z" fill="#02542D"/>
</svg>
