<svg width="100" height="100" viewBox="0 0 100 100" fill="none" xmlns="http://www.w3.org/2000/svg">
<path d="M50.0002 8.3335C27.0252 8.3335 8.3335 27.0252 8.3335 50.0002V67.2627C8.3335 71.5294 12.071 75.0002 16.6668 75.0002H20.8335C21.9386 75.0002 22.9984 74.5612 23.7798 73.7798C24.5612 72.9984 25.0002 71.9386 25.0002 70.8335V49.4043C25.0002 48.2993 24.5612 47.2395 23.7798 46.4581C22.9984 45.6767 21.9386 45.2377 20.8335 45.2377H17.0502C19.3668 29.1127 33.2418 16.6668 50.0002 16.6668C66.7585 16.6668 80.6335 29.1127 82.9502 45.2377H79.1668C78.0618 45.2377 77.002 45.6767 76.2206 46.4581C75.4392 47.2395 75.0002 48.2993 75.0002 49.4043V75.0002C75.0002 79.596 71.2627 83.3335 66.6668 83.3335H58.3335V79.1669H41.6668V91.6669H66.6668C75.8585 91.6669 83.3335 84.1919 83.3335 75.0002C87.9293 75.0002 91.6668 71.5294 91.6668 67.2627V50.0002C91.6668 27.0252 72.9752 8.3335 50.0002 8.3335Z" fill="#02542D"/>
</svg>
