<svg width="100" height="100" viewBox="0 0 100 100" fill="none" xmlns="http://www.w3.org/2000/svg">
<g clip-path="url(#clip0_77_1526)">
<path d="M94.25 -83.4102C92.6875 -83.4102 91.125 -81.168 88 -76.6836V-58.7461H69.0441C63 -67.7148 63 -67.7148 56.75 -58.7461C50.5 -49.7773 50.5 -49.7773 56.75 -40.8086C63 -31.8398 63 -31.8398 68.7695 -40.8086H88V-22.8711H100.5V-40.8086H119.525C125.698 -31.8398 125.696 -31.8398 131.946 -40.8086C138.196 -49.7773 138.196 -49.7773 131.946 -58.7461C125.696 -67.7148 125.698 -67.7148 119.25 -58.7461H100.5V-76.6836C97.375 -81.168 95.8125 -83.4102 94.25 -83.4102ZM13 -39.6875V103.812H25.5V-39.6875H13ZM38 -12.7812L31.75 -21.75V85.875L38 76.9062V-12.7812ZM94.25 -13.9023C81.75 -13.9023 75.3633 -13.9023 75.0195 4.03516H44.25V57.8477H69.4941C75.5 66.8164 81.75 75.7852 94.25 75.7852C106.75 75.7852 113 66.8164 119.25 57.8477C144.25 57.8477 144.25 57.8477 144.25 75.7852V93.7227H181.75V57.8477C181.75 21.9727 169.25 4.03516 144.25 4.03516H113C113.137 -13.9023 106.75 -13.9023 94.25 -13.9023ZM138 102.691V111.66H188V102.691H138ZM163 120.629C163 120.629 147.835 149.587 150.5 166.594C152.148 177.11 155.488 183.41 163 183.41C170.512 183.41 173.852 177.11 175.5 166.594C178.165 149.587 163 120.629 163 120.629Z" fill="#02542D"/>
</g>
<defs>
<clipPath id="clip0_77_1526">
<rect width="100" height="100" fill="white"/>
</clipPath>
</defs>
</svg>
