<svg width="25" height="24" viewBox="0 0 25 24" fill="none" xmlns="http://www.w3.org/2000/svg">
<g clip-path="url(#clip0_363_846)">
<path d="M23.2485 16.8725L23.2485 16.8731C23.1709 18.553 22.7337 19.8866 21.8087 20.8161C20.8832 21.746 19.5492 22.1913 17.8529 22.2685C16.5752 22.327 16.1881 22.339 12.98 22.339C9.77401 22.339 9.38481 22.327 8.10818 22.2685C8.10816 22.2685 8.10813 22.2685 8.10811 22.2685L8.13101 21.769L23.2485 16.8725ZM23.2485 16.8725C23.306 15.5961 23.318 15.2081 23.318 12.001C23.318 8.79528 23.307 8.40596 23.2485 7.1291C23.1714 5.44744 22.7334 4.1137 21.8077 3.18461C20.8818 2.25519 19.5476 1.81067 17.8529 1.73352L23.2485 16.8725ZM1.55249 7.0749L1.55248 7.075C1.49401 8.34449 1.48001 8.74349 1.48001 12C1.48001 15.2562 1.49401 15.6566 1.55149 16.9251L1.55249 7.0749ZM1.55249 7.0749C1.6485 4.98081 2.27367 3.41799 3.33724 2.35488M1.55249 7.0749L3.33724 2.35488M24.4075 16.9254L24.4075 16.925C24.466 15.6565 24.48 15.2565 24.48 12C24.48 8.74352 24.466 8.34435 24.4085 7.07563L24.4085 7.07549C24.3144 4.98562 23.6905 3.4228 22.6271 2.35869C21.5637 1.29457 20 0.668483 17.9061 0.572475L17.906 0.572471C16.6365 0.514001 16.2365 0.5 12.98 0.5C9.72378 0.5 9.32442 0.513997 8.05593 0.571474L24.4075 16.9254ZM24.4075 16.9254C24.313 19.0191 23.6872 20.5819 22.623 21.645C21.5587 22.7083 19.9952 23.3325 17.9051 23.4285C16.6366 23.486 16.2362 23.5 12.98 23.5C9.72354 23.5 9.32435 23.486 8.05463 23.4285M24.4075 16.9254L8.05463 23.4285M3.33724 2.35488C4.40079 1.29178 5.96357 0.667549 8.05564 0.571487L3.33724 2.35488ZM8.05463 23.4285C5.96068 23.3325 4.39795 22.7073 3.33489 21.6438M8.05463 23.4285L3.33489 21.6438M3.33489 21.6438C2.27175 20.5802 1.64751 19.0173 1.55149 16.9251L3.33489 21.6438ZM7.31801 12C7.31801 8.87314 9.85315 6.338 12.98 6.338C16.1069 6.338 18.642 8.87314 18.642 12C18.642 15.1279 16.1068 17.663 12.98 17.663C9.85326 17.663 7.31801 15.127 7.31801 12ZM8.48001 12C8.48001 14.4862 10.495 16.5 12.98 16.5C15.4651 16.5 17.48 14.4862 17.48 12C17.48 9.51486 15.4652 7.5 12.98 7.5C10.4949 7.5 8.48001 9.51486 8.48001 12ZM18.445 5.595C18.445 5.07637 18.8659 4.655 19.386 4.655C19.9044 4.655 20.325 5.07569 20.325 5.595C20.325 6.11431 19.9044 6.535 19.386 6.535C18.8659 6.535 18.445 6.11363 18.445 5.595Z" fill="#2A24E2" stroke="#2A24E2"/>
</g>
<defs>
<clipPath id="clip0_363_846">
<rect width="24" height="24" fill="white" transform="translate(0.980011)"/>
</clipPath>
</defs>
</svg>
