<svg width="100" height="100" viewBox="0 0 100 100" fill="none" xmlns="http://www.w3.org/2000/svg">
<path d="M16.6666 79.1669V70.8335H25V41.6669C25 35.903 26.7361 30.7821 30.2083 26.3043C33.6805 21.8266 38.1944 18.8918 43.75 17.5002V14.5835C43.75 12.8474 44.3583 11.3724 45.575 10.1585C46.7916 8.94462 48.2666 8.33628 50 8.33351C51.7333 8.33073 53.2097 8.93906 54.4291 10.1585C55.6486 11.378 56.2555 12.853 56.25 14.5835V17.5002C61.8055 18.8891 66.3194 21.8238 69.7916 26.3043C73.2638 30.7849 75 35.9057 75 41.6669V70.8335H83.3333V79.1669H16.6666ZM50 91.6669C47.7083 91.6669 45.7472 90.8516 44.1166 89.221C42.4861 87.5905 41.6694 85.628 41.6666 83.3335H58.3333C58.3333 85.6252 57.518 87.5877 55.8875 89.221C54.2569 90.8544 52.2944 91.6696 50 91.6669Z" fill="#02542D"/>
</svg>
