<svg width="100" height="100" viewBox="0 0 100 100" fill="none" xmlns="http://www.w3.org/2000/svg">
<path d="M65.7906 65C62.2531 63.5844 60.8406 59.6938 60.8406 59.6938C60.8406 59.6938 59.2469 60.575 59.2469 58.1C59.2469 55.625 60.8406 59.6938 62.4344 50.1375C62.4344 50.1375 66.85 48.8969 65.9656 38.6375H64.9031C64.9031 38.6375 67.5594 27.6688 64.9031 23.95C62.2469 20.2375 61.1906 17.7625 55.35 15.9906C49.5094 14.2188 51.6375 14.5719 47.3906 14.7531C43.1437 14.9344 39.6031 17.2313 39.6031 18.4719C39.6031 18.4719 36.9469 18.6469 35.8906 19.7094C34.8281 20.7719 33.0594 25.7219 33.0594 26.9594C33.0594 28.1969 33.9437 36.5219 34.8281 38.2875L33.775 38.6438C32.8875 48.9031 37.3062 50.1438 37.3062 50.1438C38.9 59.7 40.4937 55.6313 40.4937 58.1063C40.4937 60.5813 38.9 59.7 38.9 59.7C38.9 59.7 37.4875 63.5906 33.95 65.0063C30.4125 66.4219 10.775 74.025 9.17811 75.6188C7.57811 77.2125 7.75936 84.6438 7.75936 84.6438H91.9687C91.9687 84.6438 92.1562 77.2156 90.5562 75.6188C88.9625 74.025 69.3219 66.4188 65.7844 65.0063L65.7906 65ZM26.8219 64.4625C26.5094 63.9 26.3594 63.4938 26.3594 63.4938C26.3594 63.4938 25.0094 64.2438 25.0094 62.1438C25.0094 60.0438 26.3594 63.4938 27.7094 55.3938C27.7094 55.3938 31.4594 54.3469 30.7094 45.65H29.8031C29.8031 45.65 30.2531 43.8063 30.5469 41.4813C30.5336 40.4425 30.5722 39.4037 30.6625 38.3688L30.7812 37.0375C30.7187 35.5 30.4469 34.1 29.8062 33.2063C27.5562 30.0594 26.6562 27.9563 21.7125 26.4563C16.7625 24.9563 18.5562 25.2563 14.9625 25.4094C11.3625 25.5656 8.36249 27.5094 8.36249 28.5656C8.36249 28.5656 6.11249 28.7125 5.21249 29.6125C4.36874 30.4563 3.00936 34.1813 2.84686 35.5031V36.3781C2.99686 38.4219 3.65936 44.0344 4.31561 45.3563L3.42186 45.6563C2.67186 54.35 6.42186 55.4 6.42186 55.4C7.76561 63.4938 9.11874 60.05 9.11874 62.15C9.11874 64.25 7.76874 63.4938 7.76874 63.4938C7.76874 63.4938 6.57186 66.8 3.57186 67.9938L2.84686 68.2813V84.6375H4.64374C4.54999 80.6438 4.88436 75.4906 6.97499 73.4062C8.09061 72.2969 11.7375 70.4688 26.8281 64.4625H26.8219ZM96.6031 36.1625C96.4781 34.9813 96.2062 33.9281 95.6906 33.2063C93.4469 30.0563 92.5437 27.9563 87.5969 26.4563C82.65 24.9563 84.45 25.2563 80.8469 25.4094C77.2531 25.5656 74.2531 27.5094 74.2531 28.5656C74.2531 28.5656 72.0031 28.7125 71.1031 29.6125C70.2594 30.4625 68.8844 34.2125 68.7344 35.5188H68.8375L69.0875 38.375C69.15 39.0938 69.1562 39.7344 69.1719 40.3875C69.4531 42.4688 69.8281 44.6063 70.2031 45.3563L69.3094 45.6531C68.5594 54.3469 72.3094 55.3969 72.3094 55.3969C73.6594 63.4906 75.0062 60.0469 75.0062 62.1469C75.0062 64.2469 73.6625 63.4906 73.6625 63.4906C73.6625 63.4906 73.4937 63.9375 73.15 64.5531C88.0562 70.4906 91.6719 72.3031 92.775 73.4062C94.8687 75.4938 95.1937 80.6437 95.1031 84.6406H96.6031V68.0625L96.4469 67.9938C93.4469 66.7969 92.2469 63.4938 92.2469 63.4938C92.2469 63.4938 90.8937 64.2438 90.8937 62.15C90.8937 60.0563 92.2469 63.4938 93.5937 55.4C93.5937 55.4 96.1062 54.6813 96.6031 49.65V45.8125C96.6031 45.7583 96.6 45.7063 96.5937 45.6563H95.6875C95.6875 45.6563 96.3625 42.875 96.6031 39.8375V36.1625Z" fill="#02542D"/>
</svg>
