<svg width="118" height="128" viewBox="0 0 118 128" fill="none" xmlns="http://www.w3.org/2000/svg">
<path fill-rule="evenodd" clip-rule="evenodd" d="M64.7658 0C78.3073 1.35321 90.962 7.32023 100.586 16.89C110.209 26.4597 116.21 39.0437 117.57 52.5095H106.066C104.501 52.5095 103 53.1276 101.894 54.2279C100.787 55.3282 100.166 56.8205 100.166 58.3765C100.166 59.9325 100.787 61.4248 101.894 62.5251C103 63.6254 104.501 64.2435 106.066 64.2435H117.57C114.615 93.8894 89.4571 117.046 58.8658 117.046C28.2745 117.046 3.11702 93.8894 0.161133 64.2435H11.6661C13.2308 64.2435 14.7315 63.6254 15.838 62.5251C16.9444 61.4248 17.566 59.9325 17.566 58.3765C17.566 56.8205 16.9444 55.3282 15.838 54.2279C14.7315 53.1276 13.2308 52.5095 11.6661 52.5095H0.161133C1.52195 39.0437 7.52252 26.4597 17.1461 16.89C26.7696 7.32023 39.4243 1.35321 52.9658 0V11.4406C52.9658 12.9966 53.5874 14.4889 54.6939 15.5892C55.8003 16.6895 57.301 17.3076 58.8658 17.3076C60.4306 17.3076 61.9312 16.6895 63.0377 15.5892C64.1441 14.4889 64.7658 12.9966 64.7658 11.4406V0ZM92.9676 24.4653L64.3941 38.9274L62.1934 40.0832L58.5944 41.902C54.3464 44.0728 50.0158 46.4313 46.765 49.664C41.0361 55.3667 40.3399 64.8478 46.352 70.8204C52.3581 76.7988 61.8925 76.1065 67.6272 70.4097C70.412 67.6405 72.5537 64.0851 74.483 60.4593L77.2619 55.0675L79.3977 50.9724L92.9676 24.4653ZM65.7215 51.5591L65.0608 52.7911L64.3941 54.0584C63.161 56.4169 61.8807 58.8811 60.2759 60.9345L59.2847 62.1079C57.6445 63.7389 55.5972 63.4221 54.6945 62.5245C53.8803 61.7148 53.5381 59.9899 54.6768 58.4645L55.1075 57.9658C56.9896 56.2409 59.3791 54.8798 61.7745 53.6242L63.2082 52.8791C64.0735 52.4372 64.9113 51.9971 65.7215 51.5591Z" fill="#02542D"/>
</svg>
