<svg width="100" height="100" viewBox="0 0 100 100" fill="none" xmlns="http://www.w3.org/2000/svg">
<path d="M58.3334 35C43.0168 35 30.5557 44.9689 30.5557 57.2222V66.4289C30.5557 68.7044 33.0473 70.5556 36.1112 70.5556H38.889C39.6257 70.5556 40.3322 70.3214 40.8532 69.9047C41.3741 69.4879 41.6668 68.9227 41.6668 68.3333V56.9044C41.6668 56.3151 41.3741 55.7498 40.8532 55.3331C40.3322 54.9163 39.6257 54.6822 38.889 54.6822H36.3668C37.9112 46.0822 47.1612 39.4444 58.3334 39.4444C69.5057 39.4444 78.7557 46.0822 80.3001 54.6822H77.7779C77.0412 54.6822 76.3346 54.9163 75.8137 55.3331C75.2928 55.7498 75.0001 56.3151 75.0001 56.9044V70.5556C75.0001 73.0067 72.5084 75 69.4446 75H63.889V72.7778H52.7779V79.4444H69.4446C75.5723 79.4444 80.5557 75.4578 80.5557 70.5556C83.6196 70.5556 86.1112 68.7044 86.1112 66.4289V57.2222C86.1112 44.9689 73.6501 35 58.3334 35Z" fill="#02542D"/>
</svg>
