<svg width="173" height="152" viewBox="0 0 173 152" fill="none" xmlns="http://www.w3.org/2000/svg">
<path d="M158.583 70.1738V76.0004C158.574 89.6578 153.541 102.947 144.234 113.885C134.927 124.824 121.844 132.826 106.938 136.698C92.0319 140.571 76.1002 140.106 61.5193 135.373C46.9383 130.64 34.4893 121.892 26.029 110.435C17.5686 98.978 13.5501 85.4249 14.5729 71.7971C15.5956 58.1694 21.6048 45.1972 31.7042 34.8152C41.8036 24.4333 55.4521 17.1979 70.6142 14.188C85.7762 11.1782 101.639 12.5552 115.838 18.1138" fill="#D9D9D9"/>
<path d="M158.583 25.3338L86.5 88.7304L64.875 69.7304" fill="#D9D9D9"/>
<path d="M158.583 70.1738V76.0004C158.574 89.6578 153.541 102.947 144.234 113.885C134.927 124.824 121.844 132.826 106.938 136.698C92.0319 140.571 76.1002 140.106 61.5193 135.373C46.9383 130.64 34.4893 121.892 26.029 110.435C17.5686 98.978 13.5501 85.4249 14.5729 71.7971C15.5956 58.1694 21.6048 45.1972 31.7042 34.8152C41.8036 24.4333 55.4521 17.1979 70.6142 14.188C85.7762 11.1782 101.639 12.5552 115.838 18.1138M158.583 25.3338L86.5 88.7304L64.875 69.7304" stroke="#02542D" stroke-width="13" stroke-linecap="round" stroke-linejoin="round"/>
</svg>
