<svg width="100" height="100" viewBox="0 0 100 100" fill="none" xmlns="http://www.w3.org/2000/svg">
<path d="M16.6667 79.1668V70.8335H25.0001V41.6668C25.0001 35.9029 26.7362 30.7821 30.2084 26.3043C33.6806 21.8266 38.1945 18.8918 43.7501 17.5002V14.5835C43.7501 12.8474 44.3584 11.3724 45.5751 10.1585C46.7917 8.94462 48.2667 8.33628 50.0001 8.33351C51.7334 8.33073 53.2098 8.93906 54.4292 10.1585C55.6487 11.3779 56.2556 12.8529 56.2501 14.5835V17.5002C61.8056 18.8891 66.3195 21.8238 69.7917 26.3043C73.264 30.7849 75.0001 35.9057 75.0001 41.6668V70.8335H83.3334V79.1668H16.6667ZM50.0001 91.6668C47.7084 91.6668 45.7473 90.8516 44.1167 89.221C42.4862 87.5904 41.6695 85.6279 41.6667 83.3335H58.3334C58.3334 85.6252 57.5181 87.5877 55.8876 89.221C54.257 90.8543 52.2945 91.6696 50.0001 91.6668Z" fill="#02542D"/>
</svg>
