<svg width="127" height="128" viewBox="0 0 127 128" fill="none" xmlns="http://www.w3.org/2000/svg">
<g clip-path="url(#clip0_67_702)">
<path d="M75.8279 85.59C66.8932 95.1625 50.9265 91.3625 47.1564 78.7662C43.3881 66.1755 54.6057 54.15 67.3038 57.1595C81.7292 44.7245 104.139 25.4867 117.12 14.8325C121.646 11.115 125.525 15.3127 121.999 19.7505C111.706 32.713 92.4346 55.4645 79.9879 70.055C81.1867 75.3055 79.9926 81.128 75.8279 85.59ZM107.342 63.993C107.342 60.221 103.263 57.851 100.017 59.7367C96.7712 61.6225 96.7712 66.3632 100.017 68.2492C103.263 70.1352 107.342 67.7647 107.342 63.993ZM34.1486 44.3212C34.1486 40.5492 30.0695 38.179 26.8238 40.065C23.5781 41.951 23.5781 46.6912 26.8238 48.5775C30.0695 50.4637 34.1486 48.093 34.1486 44.3212ZM29.2693 63.993C29.2693 60.221 25.1901 57.851 21.9444 59.7367C18.6987 61.6225 18.6985 66.3632 21.9444 68.2492C25.1904 70.1352 29.2693 67.7647 29.2693 63.993ZM48.7873 29.5672C48.7873 25.7955 44.7082 23.4252 41.4625 25.311C38.2168 27.1967 38.2168 31.9375 41.4625 33.8235C44.7082 35.7095 48.7873 33.339 48.7873 29.5672ZM87.8234 29.5672C87.8234 25.7955 83.7443 23.4252 80.4986 25.311C77.2529 27.1967 77.2529 31.9375 80.4986 33.8235C83.7443 35.7095 87.8234 33.339 87.8234 29.5672ZM68.3054 24.6492C68.3054 20.8775 64.2262 18.5072 60.9806 20.3932C57.7349 22.2792 57.7349 27.0195 60.9806 28.9055C64.2262 30.7915 68.3054 28.4212 68.3054 24.6492ZM110.416 50.9085C116.176 72.3972 107.312 97.1047 84.9307 108.168C51.3305 124.776 12.2547 98.3007 14.7632 60.626C17.2705 22.956 59.489 2.08322 90.5797 23.137L102.707 13.7947C64.5113 -16.6605 7.69636 6.11297 0.686063 54.689C-6.32473 103.265 41.6798 141.541 86.8863 123.42C122.354 109.204 135.416 68.5635 120.953 37.0042L110.416 50.9085Z" fill="#02542D"/>
</g>
<defs>
<clipPath id="clip0_67_702">
<rect width="127" height="128" fill="white"/>
</clipPath>
</defs>
</svg>
