<svg width="100" height="100" viewBox="0 0 100 100" fill="none" xmlns="http://www.w3.org/2000/svg">
<g clip-path="url(#clip0_82_2279)">
<path d="M50 0C36.7392 0 24.0215 5.26784 14.6447 14.6447C5.26784 24.0215 0 36.7392 0 50C0 63.2608 5.26784 75.9785 14.6447 85.3553C24.0215 94.7322 36.7392 100 50 100C63.2608 100 75.9785 94.7322 85.3553 85.3553C94.7322 75.9785 100 63.2608 100 50C100 36.7392 94.7322 24.0215 85.3553 14.6447C75.9785 5.26784 63.2608 0 50 0ZM20.4625 29.5375H68.1958C70.5954 29.5724 72.8854 30.5483 74.5726 32.255C76.2598 33.9617 77.2093 36.2626 77.2167 38.6625V63.0917C77.1791 65.4861 76.2115 67.7719 74.5186 69.4657C72.8257 71.1593 70.5402 72.128 68.1458 72.1667H33.5C28.6083 72.1667 25 68.0417 25 63.0917V43.7625L18.7625 32.9375C17.4708 31.1875 18.5542 29.5375 20.4625 29.5375ZM34.6917 38.6625C33.2458 38.6625 31.8583 39.5375 31.8583 40.9292C31.8583 42.3208 33.2458 43.1958 34.6917 43.1958H67.6292C69.0708 43.1958 70.4625 42.3208 70.4625 40.9292C70.4625 39.5375 69.0708 38.6583 67.6292 38.6583L34.6917 38.6625ZM34.6917 47.7333C33.2458 47.7333 31.8583 48.6083 31.8583 50C31.8583 51.3917 33.2458 52.2667 34.6917 52.2667H67.6292C69.0708 52.2667 70.4625 51.3917 70.4625 50C70.4625 48.6083 69.0708 47.7333 67.6292 47.7333H34.6917ZM34.6375 56.8583C33.1958 56.8583 31.8042 57.7333 31.8042 59.125C31.8042 60.5167 33.1958 61.3917 34.6375 61.3917H58.5042C59.95 61.3917 61.3375 60.5167 61.3375 59.125C61.3375 57.7333 59.95 56.8542 58.5042 56.8542L34.6375 56.8583Z" fill="#02542D"/>
</g>
<defs>
<clipPath id="clip0_82_2279">
<rect width="100" height="100" fill="white"/>
</clipPath>
</defs>
</svg>
