<svg width="100" height="100" viewBox="0 0 100 100" fill="none" xmlns="http://www.w3.org/2000/svg">
<path d="M39.1793 66.7752L41.846 66.3168C42.3627 66.2279 42.9779 66.0918 43.6918 65.9085C52.5002 63.7002 58.3335 57.1168 58.3335 50.0002C58.3335 41.1043 49.2668 33.3335 37.5002 33.3335C25.7335 33.3335 16.6668 41.1043 16.6668 50.0002C16.6668 55.0752 19.5918 59.9085 24.7127 63.1252L24.8627 63.2085L29.1668 65.5835V77.096L39.1793 66.7752ZM43.271 74.5252L27.9918 90.2752C27.4144 90.8708 26.6723 91.2805 25.8606 91.4518C25.0489 91.6232 24.2045 91.5483 23.4357 91.2368C22.6668 90.9253 22.0084 90.3914 21.5448 89.7034C21.0812 89.0154 20.8335 88.2048 20.8335 87.3752V70.5002L20.2835 70.1835C13.0377 65.6335 8.3335 58.2877 8.3335 50.0002C8.3335 36.1918 21.3918 25.0002 37.5002 25.0002C53.6085 25.0002 66.6668 36.1918 66.6668 50.0002C66.6668 61.3585 57.8293 70.9502 45.7252 73.9918C44.9141 74.2004 44.0955 74.3783 43.271 74.5252ZM37.2335 20.8335C42.2752 13.3627 51.7085 8.3335 62.5002 8.3335C78.6085 8.3335 91.6668 19.5252 91.6668 33.3335C91.6668 41.621 86.9585 48.9668 79.7168 53.5168L79.1668 53.8335V70.7085C79.1668 71.5381 78.9191 72.3488 78.4555 73.0367C77.992 73.7247 77.3335 74.2586 76.5647 74.5701C75.7958 74.8816 74.9514 74.9565 74.1397 74.7852C73.328 74.6139 72.5859 74.2041 72.0085 73.6085L64.7793 66.1585L69.1252 58.6668L70.8335 60.4293V48.9168L75.1377 46.5418L75.2877 46.4585C80.4127 43.2418 83.3335 38.4085 83.3335 33.3335C83.3335 24.4377 74.2668 16.6668 62.5002 16.6668C57.1668 16.6668 52.3918 18.2627 48.7627 20.8335H37.2335Z" fill="#02542D"/>
</svg>
