<svg width="100" height="100" viewBox="0 0 100 100" fill="none" xmlns="http://www.w3.org/2000/svg">
<path d="M45.3126 67.1875C45.3126 68.4307 45.8065 69.623 46.6855 70.502C47.5646 71.3811 48.7569 71.875 50.0001 71.875C51.2433 71.875 52.4356 71.3811 53.3147 70.502C54.1937 69.623 54.6876 68.4307 54.6876 67.1875C54.6876 65.9443 54.1937 64.752 53.3147 63.8729C52.4356 62.9938 51.2433 62.5 50.0001 62.5C48.7569 62.5 47.5646 62.9938 46.6855 63.8729C45.8065 64.752 45.3126 65.9443 45.3126 67.1875ZM52.3438 56.25C52.7735 56.25 53.1251 55.8984 53.1251 55.4687V28.9062C53.1251 28.4765 52.7735 28.125 52.3438 28.125H47.6563C47.2267 28.125 46.8751 28.4765 46.8751 28.9062V55.4687C46.8751 55.8984 47.2267 56.25 47.6563 56.25H52.3438ZM91.4063 37.8906H85.6153C85.3614 37.8906 85.1271 38.0078 84.9806 38.2129L74.5802 52.5488L69.7071 45.83C69.6349 45.7294 69.5395 45.6476 69.429 45.5915C69.3186 45.5355 69.1962 45.5067 69.0724 45.5078H63.2813C62.6466 45.5078 62.2755 46.2304 62.6466 46.748L73.3106 61.4648C73.4566 61.6646 73.6476 61.8271 73.8682 61.9391C74.0888 62.0512 74.3328 62.1095 74.5802 62.1095C74.8276 62.1095 75.0715 62.0512 75.2921 61.9391C75.5127 61.8271 75.7038 61.6646 75.8497 61.4648L92.0411 39.1308C92.4122 38.6133 92.0411 37.8906 91.4063 37.8906ZM87.1095 67.7734H80.8399C80.3028 67.7734 79.8048 68.0566 79.5118 68.5058C78.1257 70.708 76.4942 72.7458 74.6485 74.58C71.4761 77.7549 67.7187 80.2852 63.5841 82.0312C59.2976 83.839 54.6912 84.7656 50.0392 84.7558C45.3419 84.7558 40.7813 83.8379 36.4942 82.0312C32.3596 80.2852 28.6022 77.7549 25.4298 74.58C22.2471 71.4158 19.7127 67.6607 17.9688 63.5254C16.1524 59.248 15.2345 54.6875 15.2345 50C15.2345 45.3125 16.1524 40.7519 17.9688 36.4746C19.7169 32.334 22.2267 28.6133 25.4298 25.4199C28.6329 22.2265 32.3536 19.7168 36.4942 17.9687C40.7807 16.1609 45.3871 15.2343 50.0392 15.2441C54.7364 15.2441 59.297 16.1621 63.5841 17.9687C67.7247 19.7168 71.4454 22.2265 74.6485 25.4199C76.504 27.2754 78.1251 29.3066 79.5118 31.4941C79.795 31.9531 80.3028 32.2265 80.8399 32.2265H87.1095C87.6954 32.2265 88.0665 31.6113 87.8126 31.0937C80.9376 17.4316 66.8653 8.00779 50.5567 7.81247C27.2364 7.53904 7.86142 26.6113 7.81259 49.9218C7.76377 73.2519 26.6896 92.1875 50.0392 92.1875C66.5626 92.1875 80.8595 82.7148 87.8028 68.9062C87.8627 68.7874 87.8912 68.6553 87.8857 68.5224C87.8803 68.3895 87.8409 68.2602 87.7715 68.1468C87.7021 68.0334 87.6048 67.9395 87.489 67.8742C87.3731 67.8088 87.2425 67.7741 87.1095 67.7734Z" fill="#02542D"/>
</svg>
