<svg width="100" height="100" viewBox="0 0 100 100" fill="none" xmlns="http://www.w3.org/2000/svg">
<path d="M45.3125 67.1875C45.3125 68.4307 45.8063 69.6229 46.6854 70.502C47.5645 71.3811 48.7568 71.875 50 71.875C51.2432 71.875 52.4355 71.3811 53.3145 70.502C54.1936 69.6229 54.6875 68.4307 54.6875 67.1875C54.6875 65.9443 54.1936 64.752 53.3145 63.8729C52.4355 62.9938 51.2432 62.5 50 62.5C48.7568 62.5 47.5645 62.9938 46.6854 63.8729C45.8063 64.752 45.3125 65.9443 45.3125 67.1875ZM52.3437 56.25C52.7734 56.25 53.125 55.8984 53.125 55.4687V28.9062C53.125 28.4765 52.7734 28.125 52.3437 28.125H47.6562C47.2265 28.125 46.875 28.4765 46.875 28.9062V55.4687C46.875 55.8984 47.2265 56.25 47.6562 56.25H52.3437ZM91.4062 37.8906H85.6152C85.3613 37.8906 85.1269 38.0078 84.9804 38.2129L74.5801 52.5488L69.707 45.83C69.6347 45.7294 69.5394 45.6476 69.4289 45.5915C69.3184 45.5355 69.1961 45.5067 69.0722 45.5078H63.2812C62.6465 45.5078 62.2754 46.2304 62.6465 46.748L73.3105 61.4648C73.4565 61.6646 73.6475 61.8271 73.8681 61.9391C74.0887 62.0512 74.3326 62.1095 74.5801 62.1095C74.8275 62.1095 75.0714 62.0512 75.292 61.9391C75.5126 61.8271 75.7036 61.6646 75.8496 61.4648L92.041 39.1308C92.4121 38.6133 92.041 37.8906 91.4062 37.8906ZM87.1093 67.7734H80.8398C80.3027 67.7734 79.8047 68.0566 79.5117 68.5058C78.1256 70.708 76.4941 72.7458 74.6484 74.58C71.476 77.7549 67.7186 80.2852 63.584 82.0312C59.2975 83.839 54.6911 84.7656 50.039 84.7558C45.3418 84.7558 40.7812 83.8379 36.4941 82.0312C32.3595 80.2852 28.6021 77.7549 25.4297 74.58C22.247 71.4158 19.7126 67.6607 17.9687 63.5254C16.1523 59.248 15.2343 54.6875 15.2343 50C15.2343 45.3125 16.1523 40.7519 17.9687 36.4746C19.7168 32.334 22.2265 28.6133 25.4297 25.4199C28.6328 22.2265 32.3535 19.7168 36.4941 17.9687C40.7806 16.1609 45.387 15.2343 50.039 15.2441C54.7363 15.2441 59.2968 16.1621 63.584 17.9687C67.7246 19.7168 71.4453 22.2265 74.6484 25.4199C76.5039 27.2754 78.125 29.3066 79.5117 31.4941C79.7949 31.9531 80.3027 32.2265 80.8398 32.2265H87.1093C87.6953 32.2265 88.0664 31.6113 87.8125 31.0937C80.9375 17.4316 66.8652 8.00779 50.5566 7.81247C27.2363 7.53904 7.8613 26.6113 7.81247 49.9218C7.76364 73.2519 26.6894 92.1875 50.039 92.1875C66.5625 92.1875 80.8593 82.7148 87.8027 68.9062C87.8626 68.7874 87.8911 68.6553 87.8856 68.5224C87.8801 68.3895 87.8408 68.2602 87.7714 68.1468C87.7019 68.0333 87.6047 67.9395 87.4888 67.8742C87.373 67.8088 87.2424 67.7741 87.1093 67.7734Z" fill="#02542D"/>
</svg>
