<svg width="221" height="162" viewBox="0 0 221 162" fill="none" xmlns="http://www.w3.org/2000/svg">
<g clip-path="url(#clip0_85_3644)">
<path d="M124.974 88.037L102.395 117.958L93.3633 105.989C92.9814 105.398 92.5114 104.918 91.9829 104.58C91.4543 104.241 90.8786 104.05 90.2919 104.02C89.7052 103.99 89.1201 104.121 88.5734 104.405C88.0267 104.689 87.5302 105.119 87.115 105.67C86.6999 106.22 86.375 106.878 86.1608 107.602C85.9466 108.327 85.8478 109.102 85.8704 109.879C85.8931 110.657 86.0368 111.42 86.2925 112.12C86.5482 112.82 86.9104 113.443 87.3564 113.949L99.4129 129.926C100.206 130.969 101.277 131.557 102.395 131.563C102.956 131.567 103.512 131.425 104.031 131.144C104.55 130.863 105.022 130.449 105.42 129.926L130.981 96.0535C131.381 95.5286 131.697 94.9043 131.914 94.2163C132.13 93.5284 132.241 92.7905 132.241 92.0452C132.241 91.3 132.13 90.5621 131.914 89.8742C131.697 89.1862 131.381 88.5618 130.981 88.037C130.183 86.9856 129.103 86.3954 127.978 86.3954C126.852 86.3954 125.773 86.9856 124.974 88.037ZM138.99 63.8184H79.3471C75.9575 63.8184 72.7066 65.6027 70.3098 68.7788C67.9129 71.955 66.5664 76.2627 66.5664 80.7545V137.208C66.5664 141.7 67.9129 146.008 70.3098 149.184C72.7066 152.36 75.9575 154.144 79.3471 154.144H128.723L144.486 175.089C144.884 175.612 145.356 176.026 145.875 176.307C146.394 176.588 146.95 176.73 147.511 176.726C148.07 176.745 148.624 176.59 149.13 176.274C149.908 175.851 150.574 175.132 151.044 174.207C151.514 173.283 151.767 172.195 151.771 171.08V80.7545C151.771 76.2627 150.425 71.955 148.028 68.7788C145.631 65.6027 142.38 63.8184 138.99 63.8184ZM143.251 157.475L133.495 144.491C133.097 143.968 132.625 143.554 132.106 143.273C131.586 142.992 131.031 142.849 130.47 142.854H79.3471C78.2172 142.854 77.1336 142.259 76.3347 141.2C75.5357 140.141 75.0869 138.705 75.0869 137.208V80.7545C75.0869 79.2572 75.5357 77.8213 76.3347 76.7626C77.1336 75.7039 78.2172 75.1091 79.3471 75.1091H138.99C140.12 75.1091 141.204 75.7039 142.003 76.7626C142.802 77.8213 143.251 79.2572 143.251 80.7545V157.475Z" fill="#02542D"/>
</g>
<defs>
<clipPath id="clip0_85_3644">
<rect width="221" height="162" fill="white"/>
</clipPath>
</defs>
</svg>
