<svg width="100" height="100" viewBox="0 0 100 100" fill="none" xmlns="http://www.w3.org/2000/svg">
<path d="M50 8.3335C27.025 8.3335 8.33334 27.0252 8.33334 50.0002V67.2627C8.33334 71.5293 12.0708 75.0002 16.6667 75.0002H20.8333C21.9384 75.0002 22.9982 74.5612 23.7796 73.7798C24.561 72.9984 25 71.9386 25 70.8335V49.4043C25 48.2993 24.561 47.2394 23.7796 46.458C22.9982 45.6766 21.9384 45.2377 20.8333 45.2377H17.05C19.3667 29.1127 33.2417 16.6668 50 16.6668C66.7583 16.6668 80.6334 29.1127 82.95 45.2377H79.1667C78.0616 45.2377 77.0018 45.6766 76.2204 46.458C75.439 47.2394 75 48.2993 75 49.4043V75.0002C75 79.596 71.2625 83.3335 66.6667 83.3335H58.3333V79.1668H41.6667V91.6668H66.6667C75.8584 91.6668 83.3334 84.1918 83.3334 75.0002C87.9292 75.0002 91.6667 71.5293 91.6667 67.2627V50.0002C91.6667 27.0252 72.975 8.3335 50 8.3335Z" fill="#02542D"/>
</svg>
