<svg width="127" height="128" viewBox="0 0 127 128" fill="none" xmlns="http://www.w3.org/2000/svg">
<g clip-path="url(#clip0_67_704)">
<path d="M75.8281 85.59C66.8935 95.1625 50.9267 91.3625 47.1566 78.7662C43.3883 66.1755 54.606 54.15 67.304 57.1595C81.7294 44.7245 104.139 25.4867 117.12 14.8325C121.647 11.115 125.526 15.3127 121.999 19.7505C111.707 32.713 92.4349 55.4645 79.9881 70.055C81.187 75.3055 79.9929 81.128 75.8281 85.59ZM107.342 63.993C107.342 60.221 103.263 57.851 100.017 59.7367C96.7715 61.6225 96.7715 66.3632 100.017 68.2492C103.263 70.1352 107.342 67.7647 107.342 63.993ZM34.1488 44.3212C34.1488 40.5492 30.0697 38.179 26.824 40.065C23.5783 41.951 23.5783 46.6912 26.824 48.5775C30.0697 50.4637 34.1488 48.093 34.1488 44.3212ZM29.2695 63.993C29.2695 60.221 25.1904 57.851 21.9447 59.7367C18.699 61.6225 18.6987 66.3632 21.9447 68.2492C25.1906 70.1352 29.2695 67.7647 29.2695 63.993ZM48.7876 29.5672C48.7876 25.7955 44.7084 23.4252 41.4627 25.311C38.217 27.1967 38.217 31.9375 41.4627 33.8235C44.7084 35.7095 48.7876 33.339 48.7876 29.5672ZM87.8237 29.5672C87.8237 25.7955 83.7446 23.4252 80.4989 25.311C77.2532 27.1967 77.2532 31.9375 80.4989 33.8235C83.7446 35.7095 87.8237 33.339 87.8237 29.5672ZM68.3056 24.6492C68.3056 20.8775 64.2265 18.5072 60.9808 20.3932C57.7351 22.2792 57.7351 27.0195 60.9808 28.9055C64.2265 30.7915 68.3056 28.4212 68.3056 24.6492ZM110.416 50.9085C116.177 72.3972 107.312 97.1047 84.931 108.168C51.3308 124.776 12.255 98.3007 14.7635 60.626C17.2707 22.956 59.4893 2.08322 90.58 23.137L102.707 13.7947C64.5115 -16.6605 7.69661 6.11297 0.686307 54.689C-6.32449 103.265 41.68 141.541 86.8866 123.42C122.354 109.204 135.416 68.5635 120.953 37.0042L110.416 50.9085Z" fill="#02542D"/>
</g>
<defs>
<clipPath id="clip0_67_704">
<rect width="127" height="128" fill="white"/>
</clipPath>
</defs>
</svg>
