<svg width="100" height="100" viewBox="0 0 100 100" fill="none" xmlns="http://www.w3.org/2000/svg">
<path d="M73.25 26.0418L80.625 33.4168L59.875 54.1668H52.5V46.7918L73.25 26.0418ZM86.875 24.2085L82.4583 19.7918C81.625 18.9585 80.3333 18.9585 79.5 19.7918L75.9583 23.3335L83.3333 30.7085L86.875 27.1668C87.7083 26.3335 87.7083 25.0002 86.875 24.2085ZM75 50.8335V70.8335H83.3333V79.1669H16.6667V70.8335H25V41.6668C25 30.0418 32.9583 20.2502 43.75 17.5002V14.5835C43.75 11.1252 46.5417 8.3335 50 8.3335C53.4583 8.3335 56.25 11.1252 56.25 14.5835V17.5002C59.6667 18.3752 62.7917 19.9585 65.4583 22.0418L44.1667 43.3335V62.5002H63.3333L75 50.8335ZM41.6667 83.3335H58.3333C58.3333 87.9169 54.5833 91.6669 50 91.6669C45.4167 91.6669 41.6667 87.9169 41.6667 83.3335Z" fill="#02542D"/>
</svg>
