<svg width="100" height="100" viewBox="0 0 100 100" fill="none" xmlns="http://www.w3.org/2000/svg">
<path d="M59.1333 46.6333H86.7V27.4041H59.1333V46.6333ZM72.9167 41.9083L62.6625 34.7749V31.0916L72.9167 38.2208L83.175 31.0916V34.7749L72.9167 41.9083ZM10.9 81.7333C8.98055 81.7333 7.37916 81.0902 6.09582 79.8041C4.81249 78.518 4.16943 76.9166 4.16666 74.9999V24.9999C4.16666 23.0833 4.80971 21.4819 6.09582 20.1958C7.38193 18.9097 8.98193 18.2666 10.8958 18.2666H89.1042C91.0208 18.2666 92.6222 18.9097 93.9083 20.1958C95.1944 21.4819 95.8361 23.0833 95.8333 24.9999V74.9999C95.8333 76.9166 95.1917 78.518 93.9083 79.8041C92.625 81.0902 91.0236 81.7333 89.1042 81.7333H10.9ZM61.6042 77.5666H89.1042C89.743 77.5666 90.3305 77.2985 90.8667 76.7624C91.4 76.2291 91.6667 75.6416 91.6667 74.9999V24.9999C91.6667 24.361 91.4 23.7735 90.8667 23.2374C90.3305 22.7041 89.7417 22.4374 89.1 22.4374H10.9C10.2583 22.4374 9.66943 22.7041 9.13332 23.2374C8.59721 23.7708 8.33055 24.3583 8.33332 24.9999V74.9999C8.33332 75.6388 8.59999 76.2263 9.13332 76.7624C9.66666 77.2985 10.2542 77.5666 10.8958 77.5666H13.3958C16.3125 73.7999 19.8597 70.7749 24.0375 68.4916C28.2153 66.2083 32.7028 65.0666 37.5 65.0666C42.2972 65.0666 46.7833 66.2083 50.9583 68.4916C55.1333 70.7749 58.6819 73.7999 61.6042 77.5666ZM37.5 59.2916C40.3861 59.2916 42.8444 58.2763 44.875 56.2458C46.9055 54.2152 47.9194 51.7569 47.9167 48.8708C47.9139 45.9847 46.9 43.5291 44.875 41.5041C42.85 39.4791 40.3917 38.4638 37.5 38.4583C34.6083 38.4527 32.15 39.4666 30.125 41.4999C28.1 43.5333 27.0861 45.9916 27.0833 48.8749C27.0805 51.7583 28.0944 54.2152 30.125 56.2458C32.1555 58.2763 34.6139 59.2944 37.5 59.2916ZM18.9583 77.5624H56.0417C53.625 74.9235 50.8167 72.8749 47.6167 71.4166C44.4139 69.9583 41.0417 69.2291 37.5 69.2291C33.9583 69.2291 30.5903 69.9583 27.3958 71.4166C24.2014 72.8749 21.3889 74.9235 18.9583 77.5624ZM37.5 55.1249C35.7861 55.1249 34.3153 54.5124 33.0875 53.2874C31.8625 52.0597 31.25 50.5874 31.25 48.8708C31.25 47.1541 31.8625 45.6847 33.0875 44.4624C34.3125 43.2402 35.7833 42.6291 37.5 42.6291C39.2167 42.6291 40.6875 43.2416 41.9125 44.4666C43.1375 45.6916 43.75 47.1624 43.75 48.8791C43.75 50.5958 43.1375 52.0666 41.9125 53.2916C40.6847 54.5138 39.2139 55.1249 37.5 55.1249Z" fill="#02542D"/>
</svg>
