<svg width="100" height="100" viewBox="0 0 100 100" fill="none" xmlns="http://www.w3.org/2000/svg">
<path d="M28.9252 79.1668C26.9029 79.1668 25.2085 78.5252 23.8418 77.2418C22.4779 75.9557 21.796 74.3543 21.796 72.4377V36.8585L8.3335 20.8335H80.371C82.3932 20.8335 84.0877 21.4766 85.4543 22.7627C86.8182 24.046 87.5002 25.6474 87.5002 27.5668V72.4377C87.5002 74.3543 86.8182 75.9557 85.4543 77.2418C84.0877 78.5252 82.3932 79.1668 80.371 79.1668H28.9252ZM17.2752 25.0002L25.9627 35.2585V72.4377C25.9627 73.0765 26.2696 73.664 26.8835 74.2002C27.4974 74.7363 28.1779 75.0029 28.9252 75.0002H80.3752C81.1224 75.0002 81.8029 74.7335 82.4168 74.2002C83.0307 73.6668 83.3377 73.0793 83.3377 72.4377V27.5627C83.3377 26.9238 83.0307 26.3363 82.4168 25.8002C81.8029 25.2641 81.121 24.9974 80.371 25.0002H17.2752ZM52.4835 68.7502L55.4335 65.8002L48.1252 59.1335H70.2752V54.9668H37.9835L52.4835 68.7502ZM37.9835 45.0335H70.2752L55.8502 31.2502L52.9002 34.2002L60.2085 40.8668H37.9835V45.0335Z" fill="#02542D"/>
</svg>
