<svg width="100" height="100" viewBox="0 0 100 100" fill="none" xmlns="http://www.w3.org/2000/svg">
<path fill-rule="evenodd" clip-rule="evenodd" d="M67.1875 50C67.1875 49.1712 66.8583 48.3764 66.2723 47.7903C65.6862 47.2043 64.8913 46.875 64.0625 46.875H18.3417L26.5125 39.875C26.8244 39.608 27.0807 39.2822 27.2666 38.9161C27.4526 38.5501 27.5646 38.151 27.5964 37.7416C27.6281 37.3323 27.5789 36.9207 27.4515 36.5304C27.3242 36.14 27.1212 35.7786 26.8542 35.4667C26.5872 35.1548 26.2614 34.8986 25.8953 34.7126C25.5293 34.5267 25.1302 34.4146 24.7208 34.3829C24.3115 34.3512 23.8999 34.4004 23.5095 34.5277C23.1192 34.6551 22.7578 34.858 22.4459 35.125L7.86254 47.625C7.51948 47.9184 7.24405 48.2826 7.0552 48.6926C6.86635 49.1026 6.76855 49.5486 6.76855 50C6.76855 50.4514 6.86635 50.8975 7.0552 51.3075C7.24405 51.7175 7.51948 52.0817 7.86254 52.375L22.4459 64.875C23.0758 65.4143 23.8941 65.6813 24.7208 65.6172C25.5475 65.5531 26.3149 65.1633 26.8542 64.5334C27.3935 63.9035 27.6604 63.0852 27.5964 62.2584C27.5323 61.4317 27.1424 60.6643 26.5125 60.125L18.3459 53.125H64.0625C64.8913 53.125 65.6862 52.7958 66.2723 52.2097C66.8583 51.6237 67.1875 50.8288 67.1875 50Z" fill="#02542D"/>
<path d="M39.0625 33.3335C39.0625 36.2585 39.0625 37.721 39.7667 38.7752C40.0699 39.2284 40.4593 39.6177 40.9125 39.921C41.9667 40.6252 43.4292 40.6251 46.3542 40.6251H64.0625C66.5489 40.6251 68.9335 41.6129 70.6916 43.371C72.4498 45.1292 73.4375 47.5137 73.4375 50.0001C73.4375 52.4865 72.4498 54.8711 70.6916 56.6293C68.9335 58.3874 66.5489 59.3751 64.0625 59.3751H46.3542C43.4292 59.3751 41.9667 59.3751 40.9125 60.0751C40.4589 60.3796 40.0695 60.7704 39.7667 61.2251C39.0625 62.2793 39.0625 63.7418 39.0625 66.6668C39.0625 78.4501 39.0625 84.346 42.725 88.0043C46.3833 91.6668 52.275 91.6668 64.0583 91.6668H68.225C80.0167 91.6668 85.9042 91.6668 89.5667 88.0043C93.2292 84.346 93.2292 78.4501 93.2292 66.6668V33.3335C93.2292 21.5502 93.2292 15.6543 89.5667 11.996C85.9042 8.33766 80.0125 8.3335 68.2292 8.3335H64.0625C52.275 8.3335 46.3833 8.3335 42.725 11.996C39.0625 15.6543 39.0625 21.5502 39.0625 33.3335Z" fill="#02542D"/>
</svg>
