<?xml version="1.0" encoding="UTF-8"?>
<svg version="1.1" viewBox="0 0 2000 2000" width="500" height="500" xmlns="http://www.w3.org/2000/svg">
<path transform="translate(0)" d="m0 0h2e3v2e3h-2e3z" fill="#FCFCFD"/>
<path transform="translate(755,531)" d="m0 0h15l10 2v2l6 1 2 1v2l-19 2-8 4-6 4-10 6-6 2-8 4 2 2-1 7-4 11-1 1 24 1 2 3 2 27v13l-20 8h-2v11l2 11 4 9 7 14 12 10 16 6 18 3 10-1 13-5-1 7-9 16-12 16-8 10-9 10-5 6h-3l-2-22-4-15-7-14-12-16-9-10-9-11-4-5-2-1v-2h-2l8 18 11 26 12 27 10 23 18 41 16 36 11 24 2-2 16-42 21-54 18-47 16-41 9-23 2-3v-3l-40-11-7-3-1-1v-18l1-24 1-1h164l1 2 2 28v12l-3 3-30 11-6 3-3 4-15 33-13 28-8 18-7 16-7 15-18 39-15 33-17 37-60 132-13 28-2 2h-42l-5-5-15-31-9-20-19-40-13-28-19-40-7-15-7-16-7-14-13-28-9-20-3-1-7 16-13 29-16 36-15 35-13 29-11 25-20 46-13 29-6 12-1 1h-43l-4-5-19-41-11-25-7-14-9-20-12-26-12-27-7-15-15-32-15-33-9-19-9-20-13-29-7-15-15-32-9-20-6-11-4-3-24-9-10-4-1-1v-14l1-25 2-4 163-1h50l3 2 2 29v13l-8 4-20 8-7 3 1 5 12 27 13 30 14 32 39 90 9 21 2 1 3-9 8-21 14-34 11-28 26-64 1-5-13-29-7-13-5-4-31-13-1-1v-16l2-26 1-1 54-1h90l21-1 8-18 7-9 10-10 12-7 16-5z" fill="#0565FE"/>
<path transform="translate(780,534)" d="m0 0 7 1 16 8 8 6 8 8 7 11 7 15 4 16 1 5 1-13h1v35l10 4 37 10 1 4-4 8-19 49-15 39-17 44-8 20-6 16-8 21-6 15h-3l-17-37-13-30-15-34-11-25-18-41-7-16-4-10v-2h2v2l3 1 9 11 10 11 13 17 7 12 5 15 2 12v15l3-1 7-8 9-10 12-16 9-14 6-11v-4l-12 5-10 1-21-4-13-5-13-11-8-15-4-11-1-10v-7l4-4 18-6v-13l-2-27-1-2-25-1 6-15v-5l-2-3 9-4 6-2 10-6 9-6 5-2 19-1v-2l-8-2z" fill="#01CAFF"/>
<path transform="translate(838,627)" d="m0 0 9 2 40 11 1 4-4 8-19 49-15 39-17 44-8 20-6 16-8 21-6 15h-3l-17-37-13-30-15-34-11-25-18-41-7-16-4-10v-2h2v2l3 1 9 11 10 11 13 17 7 12 5 15 2 12v15l3-1 7-8 9-10 12-16 9-14 8-14 11-24 5-15 4-16z" fill="#FDFDFD"/>
<path transform="translate(1383,590)" d="m0 0h72l17 3 10 4 7 6 4 7 3 9v11l-6 12-9 9-10 6 2 4 8 10 12 16 9 9 10 6 6 4 1 1-1 8-2 3-7 2h-13l-15-3-12-5-9-7-9-11-9-19-5-12-3-2v39l5 1 6 3v11l-1 1-13 1h-16l-32-1-1-2v-9l3-3 10-3 1-10v-57l-1-22-2-3-10-3-3-5 2-8z" fill="#0567FE"/>
<path transform="translate(1344,589)" d="m0 0h12l2 4 6 30-1 1-14 2-3-4-6-14-2-2h-33l-1 37h27l1-13 1-1 12-1 2 2v44l-1 1h-13l-1-1-2-13-26-1 1 39h41l9-16 3-5 14 1 1 3-10 35-2 1-92-1-17-1-1-7 2-6 13-5 1-18v-42l-1-27-1-3-12-4-1-1v-12l1-1z" fill="#0569FE"/>
<path transform="translate(1044,587)" d="m0 0h4l10 22 12 27 27 60 1 3 9 3 2 2v12l-4 1h-53l-9-1-2-3v-9l9-4 3-1-1-6-6-10h-35l-4 9-2 4v3l10 3 3 3v10l-1 1-7 1h-20l-18-1-1-1v-10l4-4 7-1 2-6 10-23 11-27 6-13 11-26 5-8z" fill="#0568FE"/>
<path transform="translate(1116,589)" d="m0 0h121l1 1 5 35-1 5-4 1h-12l-3-8-4-12-2-4-10-1h-10l-1 1v93l17 2 2 2v11l-1 1-8 1h-58l-9-1-1-9 1-4 10-3 8-1v-92l-3-1h-20l-4 16-3 9-6 1-10-1-1-1 1-13 3-23z" fill="#0568FE"/>
<path transform="translate(1474,756)" d="m0 0h5l1 7 9 3h8l11-2 3 3 1 26 1 1 7-1 1-11-2-7-4-6 3-2 9-2 6-1 1 1 17-1 5 4 3 7 1 15 4 8v2l-3 1h-88l-5-3-4-9v-16l-5 1-3 3h-10v10l2 6 5 5-1 3h-26l-1-4 5-7 1-3v-9l-5-9 7-3 6-2h4l2 4 4-2 1-1 14-1z" fill="#01CAFF"/>
<path transform="translate(1838,763)" d="m0 0 4 1 1 4 6-1 5-3h9l6 5 3 8 2 16 3 6-1 1-11 1h-57v-5l3-4 1-11-3-9-1-4 1-1 10-2 4-1 3 2 6-1z" fill="#01CAFF"/>
<path transform="translate(1191,747)" d="m0 0h8l8 6 1 2v8l-5 7-3 3 1 5 4 5 4 1-1-7-1-4 4-2 16 1 1 4-9 7-2 3v5l7-1 7-2 1 6-6 5-5 2h-40l-6-3-6-7-1-2v-6l5-6 5-2 1-4-2-5v-8l4-6 6-4z" fill="#01CAFF"/>
<path transform="translate(1579,764)" d="m0 0h12l3 1 11 1 1 4-4 4-3 11-8 6-1 2 9 2 5 4 1 2v6l-7 8-5 3-12 1-14-4-3-3 1-5 3-3 1-11 1-1-1-7-3-6 3-9 6-5z" fill="#01CAFF"/>
<path transform="translate(1251,753)" d="m0 0h27l10 5 3 5v6l-7 8h-2l3 7 6 7 9 7v3l-2 1h-9l-9-3-8-10-1-5h-4l2 9 4 7-1 1h-22l-2-1 1-5 4-3v-24l-2-7-3-4v-3z" fill="#01CAFF"/>
<path transform="translate(1350,764)" d="m0 0 5 1 4 1 4-2h7l6 4 3 5 1 4v10l-4 7-8 6-11 2-1 1 1 7 5 3 1 3-3 2h-22l-2-1 1-4 4-6 1-16v-11l-3-7-1-5z" fill="#01CAFF"/>
<path transform="translate(943,753)" d="m0 0 5 1 4 7 13 29 7 8-1 3h-26v-4l3-4v-3l-15-1 2 7 3 3v2h-18l-1-4 6-9 13-29z" fill="#01CAFF"/>
<path transform="translate(1643,752)" d="m0 0h8l5 3 3 4 1 8-1 2-6-1-5-7h-7l-1 4 5 5 12 6 5 5 1 6-4 7-8 6-2 1h-13l-8-3-4-4v-8l2-3 5-1 4 10 2 1h8l2-4-2-3-12-5-7-6-2-4 1-7 4-6 5-3z" fill="#01CAFF"/>
<path transform="translate(1401,764)" d="m0 0h9l8 4 4 5 2 5v8l-4 8-8 7-9 1-9-3-7-8-2-4v-9l5-8 5-4z" fill="#01CAFF"/>
<path transform="translate(1389,1059)" d="m0 0h8l8 4 2 2 1 8 1 37-1 1h-5v-17l-8 3h-7l-5-2-5-6-2-5v-13l4-8 5-3z" fill="#0479FE"/>
<path transform="translate(1728,1046)" d="m0 0 3 1 1 21v19l-2 5-6 4-3 1h-10l-5-3-5-6-1-4v-12l4-9 5-3 4-1h8l6 2v-14z" fill="#0577FE"/>
<path transform="translate(1308,1046)" d="m0 0h3l1 23v18l-2 6-10 4h-9l-5-3-5-6-1-3v-13l4-9 5-3 4-1h7l8 4-1-16z" fill="#0479FE"/>
<path transform="translate(1666,764)" d="m0 0h40l-2 5-5 8-9 17-8 16-4 5-6 3-7-3-1-5 13-8 2-3-1-6-5-9-6-11-4-5v-3z" fill="#01CAFF"/>
<path transform="translate(1314,764)" d="m0 0h11l7 6 3 9v12l-3 5-5 4-3 1h-12l-8-7-4-6v-9l3-7 8-7z" fill="#01CAFF"/>
<path transform="translate(1785,764)" d="m0 0h10l7 5 2 5v17l-3 6-4 3-3 1h-11l-5-3-5-6-3-7 1-8 4-7 7-5z" fill="#01CAFF"/>
<path transform="translate(719,1059)" d="m0 0h9l6 4 4 6 1 5v7l-3 9-5 5-4 2h-10l-5-3-5-8-1-4v-7l2-9 5-5z" fill="#047CFE"/>
<path transform="translate(1061,764)" d="m0 0h11l7 6 2 5v7l-4 1-16 1 1 5 3 1h8l5-4 4 1-1 6-4 5-7 3h-9l-6-3-6-7-2-10 3-8 4-5z" fill="#01CAFF"/>
<path transform="translate(1434,604)" d="m0 0 10 1 7 3 5 6 2 10-2 9-6 8-4 3-7 2h-5l-1-1v-40z" fill="#FDFDFD"/>
<path transform="translate(1570,1048)" d="m0 0 5 3 12 27 3 8 2-3 6-15 6-12 3-7 4-1 1 2 1 12v34h-5l-1-4 1-30-3 3-12 30h-6l-3-8-8-22-2-4-2-1 1 35-3 1-3-2 1-44z" fill="#0479FE"/>
<path transform="translate(1718,764)" d="m0 0h12l7 4-2 7-4 1-5-5-6-1 1 5 13 6 3 6-1 7-8 7h-14l-7-3-2-2v-7l3-2h3l4 6 7 1v-4l-9-4-6-5-1-6 3-6 6-4z" fill="#01CAFF"/>
<path transform="translate(1131,764)" d="m0 0h12l4 2 2 8-1 2-6-1-3-4h-5v4l14 7 2 3v6l-7 8-3 2h-13l-7-2-1-3v-7l3-2h3l2 5 6 2 2-2-1-3-10-3-4-6v-7l3-5z" fill="#01CAFF"/>
<path transform="translate(1097,764)" d="m0 0h12l5 5 1 6-1 1h-5l-4-5h-5v4l14 7 2 4-1 7-7 8h-15l-7-2-2-5v-5l5-2 3 4v2l9 1-1-4-12-6-2-4v-7l4-6z" fill="#01CAFF"/>
<path transform="translate(1026,764)" d="m0 0h9l6 4 2 2v6l-3 2-5-1-3-3-8-1 1 11 1 5h9l4-2 5 1-1 5-7 6-5 2h-8l-8-4-6-9v-8l4-8 7-6z" fill="#01CAFF"/>
<path transform="translate(988,764)" d="m0 0h9l6 4 2 2v6l-2 2-5-1-7-4-4 1-1 7 3 7 5 2 6-3h5v6l-7 6-5 2h-9l-5-3-7-8-1-2v-8l3-7 8-7z" fill="#01CAFF"/>
<path transform="translate(1753,756)" d="m0 0h2l3 7 9 2v6l-4 1h-5l-1 1v15l1 2 9-1 1 6-4 5-2 1h-10l-5-3-4-5-1-4v-16l-3-4 1-4z" fill="#01CAFF"/>
<path transform="translate(634,1059)" d="m0 0h9l7 6 2 7v7l-7 2h-10l-6-1 1 7 3 3 3 1h14l1 4-7 2h-8l-7-2-4-4-3-8v-8l2-9 5-5z" fill="#047CFE"/>
<path transform="translate(916,1059)" d="m0 0 7 1 2 1v2l6-2 2-1h12l4 6 2 9 1 19-6 2-2-1v-27l-2-3h-10l-2 4-1 26h-6v-28l-2-2h-11l-1 2v28l-4 1-3-1v-32l5-3z" fill="#047BFE"/>
<path transform="translate(1084,1059)" d="m0 0h9l6 5 2 13v17l-12 3h-8l-5-3-3-6v-6l4-5 8-2 10 1-2-10-6-2-10 1v-4z" fill="#047EFE"/>
<path transform="translate(800,598)" d="m0 0 6 3 3 5 1 5v12l-3 9-6 5h-6l-5-5-2-5v-15l4-10z" fill="#FDFDFD"/>
<path transform="translate(1261,1059)" d="m0 0 6 1 4 5 1 2 1 10v16l-8 3-10 1-7-3-3-3-1-8 3-5 9-3 11-1-2-8-1-1h-15l1-4z" fill="#047AFE"/>
<path transform="translate(1352,1049)" d="m0 0 4 2 8 19 7 20 1 1v5l-4-1-7-14-16-1-5 11-3 5h-5l3-9 10-25 6-12z" fill="#047AFE"/>
<path transform="translate(1498,1060)" d="m0 0h14l7 4 1-3 2-1h12l4 4 2 10 1 20-1 1h-5v-18l-1-9-2-3h-11l-2 8-1 18v4l-5 1-2-1 1-27-2-3-12-1-1 31-4 1-2-1v-31l1-3z" fill="#047FFE"/>
<path transform="translate(1753,1059)" d="m0 0 8 1 4 6 1 4v23l-7 3-3 1h-9l-5-2-3-7 1-9 7-3 13-2-1-7-4-3-13 1v-3l3-2z" fill="#0479FE"/>
<path transform="translate(1178,1060)" d="m0 0h14l6 3 4-3h12l4 4 2 9v22h-5v-19l-2-10-1-1-12-1-2 19v12l-5 1-2-1 1-27-2-3-12-1-1 31-4 1-2-1v-29l2-5z" fill="#047EFE"/>
<path transform="translate(857,1059)" d="m0 0h7l5 4 4-2 1-1 11-1 5 3 2 6 1 23-1 4h-5v-22l-2-7-1-1h-10l-1 2-1 28h-6l-1-27-3-3h-11l-1 3-1 23-1 5-4-1-1-4 1-29 7-2z" fill="#0576FE"/>
<path transform="translate(1462,1060)" d="m0 0h14l3 3 2 7v24l-6 2-13 1-5-2-3-5v-9l2-4 10-2h9l-1-9-4-2-12 1v-4z" fill="#0578FE"/>
<path transform="translate(1783,1060)" d="m0 0h14l4 2v2l7-4h10l4 2 2 8 1 24-1 1h-5v-24l-2-6h-12l-1 30h-7v-27l-2-3h-12l-1 3v27l-1 1h-5l-1-5 1-29z" fill="#0478FE"/>
<path transform="translate(1291,1064)" d="m0 0h9l6 5 1 3v12l-3 6-3 2h-9l-5-3-2-6v-10l3-6z" fill="#FDFDFD"/>
<path transform="translate(1711,1064)" d="m0 0h10l5 5 1 5v10l-3 6-3 2h-9l-5-4-2-6v-9l3-6z" fill="#FDFDFD"/>
<path transform="translate(1387,1064)" d="m0 0h10l5 5 1 13-2 7-4 3h-9l-4-2-3-7v-10l3-6z" fill="#FDFDFD"/>
<path transform="translate(517,1059)" d="m0 0h10l6 4 4 7 1 10-2 9-4 5-6 3h-10l-6-4-5-10v-10l4-9 5-4zm0 5-5 4-2 7v7l3 7 4 3h8l5-4 2-4v-12l-4-6-3-2z" fill="#047DFE"/>
<path transform="translate(718,1064)" d="m0 0h9l5 5 1 3v12l-4 6-3 2h-8l-5-5-1-3v-13l4-6z" fill="#FDFDFD"/>
<path transform="translate(599,1059)" d="m0 0h7l5 4 3 6 1 9v17l-6 1-1-1v-23l-2-6-1-1h-10l-3 1-1 5v24l-5 1-2-3v-26l2-5z" fill="#0488FE"/>
<path transform="translate(817,1059)" d="m0 0h8l8 7 2 4v16l-5 8-6 3h-9l-5-2-5-6-1-3v-16l3-6 3-3zm-3 5-5 6-1 4v8l3 8 4 2h8l5-4 2-4v-12l-4-6-3-2z" fill="#0479FE"/>
<path transform="translate(1418,1061)" d="m0 0 4 2v21l2 6 2 1h11l2-2 1-28h5l1 1v31l-5 3-4 1h-12l-5-3-3-5-1-3v-22z" fill="#047DFE"/>
<path transform="translate(560,1059)" d="m0 0h8l6 7 2 7v21l-1 1h-5v-21l-2-7-2-2h-11l-2 2-1 28h-5l-1-1v-31l7-3z" fill="#0480FE"/>
<path transform="translate(487,1047)" d="m0 0 11 1 2 3-1 1-15 1-8 3-4 6-2 7v8l4 9 1 3 6 2 9 1 8-1v4l-4 2h-13l-7-3-7-8-3-8v-11l4-10 4-5 7-4z" fill="#047EFE"/>
<path transform="translate(784,1047)" d="m0 0 11 1 3 3-1 2h-17l-8 5-3 8v13l3 8 6 4h17l2 1-2 4-3 1h-13l-7-3-7-8-2-5v-15l3-9 5-6 7-3z" fill="#0480FE"/>
<path transform="translate(1678,1059)" d="m0 0 9 1 4 5 1 4 1 18v8l-4 1-2-1v-23l-3-7h-13l-2 9v21l-4 1-2-1v-24l1-9 6-2z" fill="#047BFE"/>
<path transform="translate(1014,1059)" d="m0 0h7l5 4 2 6 1 25-1 1h-5v-21l-2-8-1-1h-13l-1 1-1 8v13l1 8-5 1-2-1v-24l1-10z" fill="#0577FE"/>
<path transform="translate(1624,1060)" d="m0 0 4 1 1 4v16l2 10 9 1 6-1 1-6v-24h5l1 10v23l-4 2-6 1h-10l-6-3-3-6z" fill="#0576FE"/>
<path transform="translate(1026,636)" d="m0 0 3 1 9 19 2 5v4l-15 1h-8l-1-4 8-21z" fill="#FDFDFD"/>
<path transform="translate(960,1061)" d="m0 0 5 1v17l2 12h15l1-8v-21l4-1 1 1 1 12v19l-1 2-11 2h-7l-7-3-3-6z" fill="#0577FE"/>
<path transform="translate(657,1060)" d="m0 0h5l4 5 4 7 4-2 5-8 2-2h4l-1 5-8 10 1 6 7 9 3 4v2h-5l-7-8-3-4-4 2-6 9-6 1 2-5 8-11v-6l-6-7-3-5z" fill="#0482FE"/>
<path transform="translate(1133,1060)" d="m0 0 3 1 1 21 2 9 11 1 3-1 2-7v-22l4-1 1 1 1 13v18l-1 2-9 2h-11l-6-5-2-7v-24z" fill="#0574FE"/>
<path transform="translate(1479,772)" d="m0 0h13l5 5v12l-2 5-4 1-2-6-9 2-2-2v-16z" fill="#FDFDFD"/>
<path transform="translate(1052,1059)" d="m0 0h16l1 5-2 1-9-2 1 25 1 2 8 2v4l-6 1-6-2-3-4-1-5-1-26z" fill="#047CFE"/>
<path transform="translate(1113,1056)" d="m0 0h2l1 3 8 1 1 3-4 1-6-1 1 23 1 4 9 3-1 3-2 1-9-1-3-3-1-3-1-30z" fill="#0574FE"/>
<path transform="translate(933,1060)" d="m0 0h12l4 6 2 9 1 19-6 2-2-1v-27l-2-3-11-1z" fill="#0487FE"/>
<path transform="translate(881,1059)" d="m0 0 7 1 3 4 1 4 1 23-1 4h-5v-22l-2-7-1-1h-11l-2-2 3-3z" fill="#047AFE"/>
<path transform="translate(693,1060)" d="m0 0 4 1 1 1v34h-6v-35z" fill="#02A1FE"/>
<path transform="translate(1500,745)" d="m0 0h9l3 4v6l-5 5h-7l-4-3-1-8z" fill="#01CAFF"/>
<path transform="translate(1522,1060)" d="m0 0h12l4 4 2 10 1 20-1 1h-5v-18l-1-9-2-3-11-1z" fill="#047AFE"/>
<path transform="translate(1264,1079)" d="m0 0 4 1-1 8-4 4h-10l-4-4 1-5 1-2z" fill="#FDFDFD"/>
<path transform="translate(1091,1079)" d="m0 0h4l1 5-2 6-3 2h-10l-3-3v-7l2-2z" fill="#FDFDFD"/>
<path transform="translate(633,1064)" d="m0 0h9l5 6v5l-1 1h-17l-1-1 1-7z" fill="#FDFDFD"/>
<path transform="translate(1827,774)" d="m0 0h6l2 1 1 3v14l-3 3h-5l-2-3v-17z" fill="#FDFDFD"/>
<path transform="translate(1471,1079)" d="m0 0 5 1v8l-3 4h-11l-3-3v-6l2-3z" fill="#FDFDFD"/>
<path transform="translate(1755,1079)" d="m0 0h5l1 2v6l-4 5-7 1-5-3-1-2v-6l2-2z" fill="#FDFDFD"/>
<path transform="translate(1403,771)" d="m0 0 5 2 2 7v8l-2 5-4 1-3-3-2-13 1-5z" fill="#FDFDFD"/>
<path transform="translate(1537,774)" d="m0 0h5l3 4v15l-2 2-7-1-1-8v-10z" fill="#FDFDFD"/>
<path transform="translate(1038,1061)" d="m0 0h5l1 24 1 9-6 2-1-1-1-33z" fill="#0393FE"/>
<path transform="translate(1202,1060)" d="m0 0h12l4 4 2 9v22h-5v-19l-2-10-3-2-9-1z" fill="#0576FE"/>
<path transform="translate(1851,774)" d="m0 0 6 1 1 1v17l-2 2h-5l-2-2-1-16z" fill="#FDFDFD"/>
<path transform="translate(1358,774)" d="m0 0 7 2 1 2v10l-4 5h-5l-1-2v-15z" fill="#FDFDFD"/>
<path transform="translate(1351,1059)" d="m0 0 4 1 4 10 1 6h-14l2-9z" fill="#FDFDFD"/>
<path transform="translate(1794,782)" d="m0 0 6 1v5l-5 4-7-1-4-3 1-5z" fill="#FDFDFD"/>
<path transform="translate(1327,782)" d="m0 0 5 1-2 5-5 3-8-1-2-1v-5z" fill="#FDFDFD"/>
<path transform="translate(1577,804)" d="m0 0h12l3 2-1 4-5 2-8-1-1-1z" fill="#FDFDFD"/>
<path transform="translate(1268,761)" d="m0 0h6l2 3-1 7-6 2-2-3v-8z" fill="#FDFDFD"/>
<path transform="translate(720,573)" d="m0 0 5 1 2 4-2 4h-11v-5h2v-2z" fill="#01CAFF"/>
<path transform="translate(546,1076)" d="m0 0 3 2 2-1 1 18h-5l-1-1z" fill="#056CFE"/>
<path transform="translate(1581,772)" d="m0 0h6l1 1v9l-1 2-6-1-1-9z" fill="#FDFDFD"/>
<path transform="translate(1038,1061)" d="m0 0h5v12l-1 5h-1v-6h-2v15h-1l-1-25z" fill="#056FFE"/>
<path transform="translate(1687,768)" d="m0 0 5 1v6l-3 5-4-2-1-7z" fill="#FDFDFD"/>
<path transform="translate(657,1060)" d="m0 0h5l4 5 3 7-4 1-7-9z" fill="#0488FE"/>
<path transform="translate(614,1078)" d="m0 0h1v17l-6 1-1-1v-10l2-2 2 5h1z" fill="#01BAFE"/>
<path transform="translate(585,1072)" d="m0 0h1l1 11 1-8h1l1 19-5 1z" fill="#0565FE"/>
<path transform="translate(1192,754)" d="m0 0 4 1 1 6-2 5-4-1-2-7z" fill="#FDFDFD"/>
<path transform="translate(948,1081)" d="m0 0 2 3 2 10-6 2-2-1 2-12z" fill="#0571FE"/>
<path transform="translate(1786,770)" d="m0 0h5l2 2v5l-7 1-2-1v-5z" fill="#FDFDFD"/>
<path transform="translate(1316,770)" d="m0 0h5l2 2v5l-6 1-3-1v-5z" fill="#FDFDFD"/>
<path transform="translate(1063,770)" d="m0 0h5l2 2-1 5-5 1-3-1v-5z" fill="#FDFDFD"/>
<path transform="translate(693,1077)" d="m0 0h3 1l-1 18h-3z" fill="#0664FE"/>
<path transform="translate(1184,783)" d="m0 0 4 1 4 4v4l-7-1-2-3z" fill="#FDFDFD"/>
<path transform="translate(939,773)" d="m0 0 4 1 1 7-1 1h-5l-1-1 1-7z" fill="#FDFDFD"/>
<path transform="translate(665,1065)" d="m0 0 3 4 1 3-4 1-4-5z" fill="#0395FE"/>
</svg>
